# xmcd
#
# Track frame offsets:
#	150
#	15656
#	28715
#	45209
#	61406
#	74381
#	91195
#	108661
#	126143
#	140690
#	154128
#	171249
#
# Disc length: 2554 seconds
# Revision: 0
# Processed by: cddbd v1.5.2PL0 Copyright (c) Steve Scherf et al.
# Submitted via: dBpowerAMP V12.0
#
DISCID=9f09f80c
DTITLE=Hey Romeo - Hey Romeo
DYEAR=2007
DGENRE=Country
TTITLE0=Wrap These Around You
TTITLE1=Sorry That You're Leavin'
TTITLE2=Goodbye
TTITLE3=I Got Nothin'
TTITLE4=Second Hand News
TTITLE5=Weathered Names
TTITLE6=Destinations
TTITLE7=Good For Me
TTITLE8=Silent Screams
TTITLE9=Easy
TTITLE10=All Because of You
TTITLE11=Just Like Today
EXTD=
EXTT0=
EXTT1=
EXTT2=
EXTT3=
EXTT4=
EXTT5=
EXTT6=
EXTT7=
EXTT8=
EXTT9=
EXTT10=
EXTT11=
PLAYORDER=
